<svg width="106" height="27" viewBox="0 0 106 27" fill="none" xmlns="http://www.w3.org/2000/svg">
<g filter="url(#filter0_i)">
<path d="M97.6222 0L90.9778 0L102.533 18.7826L106 13.5L97.6222 0Z" fill="#B2B7B5"/>
</g>
<g filter="url(#filter1_i)">
<path d="M90.9779 27L99.3557 13.5L102.533 18.7826L97.6223 27H90.9779Z" fill="#4DBBA1" fill-opacity="0.78"/>
</g>
<path d="M85.9185 0L94.25 13.5L85.9185 27H6C2.68629 27 0 24.3137 0 21V6C0 2.68629 2.68629 0 6 0H85.9185Z" fill="#489F8A"/>
<path d="M28.1808 16.536H24.9888L24.4248 18H21.5448L25.2168 9.6H28.0008L31.6728 18H28.7448L28.1808 16.536ZM27.4008 14.496L26.5848 12.384L25.7688 14.496H27.4008ZM39.3022 9.096V18H36.7222V17.46C36.3302 17.9 35.7302 18.12 34.9222 18.12C34.3462 18.12 33.8142 17.984 33.3262 17.712C32.8462 17.432 32.4622 17.032 32.1742 16.512C31.8942 15.992 31.7542 15.392 31.7542 14.712C31.7542 14.032 31.8942 13.436 32.1742 12.924C32.4622 12.404 32.8462 12.008 33.3262 11.736C33.8142 11.456 34.3462 11.316 34.9222 11.316C35.6502 11.316 36.2062 11.504 36.5902 11.88V9.096H39.3022ZM35.5702 16.008C35.8822 16.008 36.1382 15.896 36.3382 15.672C36.5382 15.44 36.6382 15.12 36.6382 14.712C36.6382 14.304 36.5382 13.988 36.3382 13.764C36.1382 13.54 35.8822 13.428 35.5702 13.428C35.2582 13.428 35.0022 13.54 34.8022 13.764C34.6022 13.988 34.5022 14.304 34.5022 14.712C34.5022 15.12 34.6022 15.44 34.8022 15.672C35.0022 15.896 35.2582 16.008 35.5702 16.008ZM47.8231 9.096V18H45.2431V17.46C44.8511 17.9 44.2511 18.12 43.4431 18.12C42.8671 18.12 42.3351 17.984 41.8471 17.712C41.3671 17.432 40.9831 17.032 40.6951 16.512C40.4151 15.992 40.2751 15.392 40.2751 14.712C40.2751 14.032 40.4151 13.436 40.6951 12.924C40.9831 12.404 41.3671 12.008 41.8471 11.736C42.3351 11.456 42.8671 11.316 43.4431 11.316C44.1711 11.316 44.7271 11.504 45.1111 11.88V9.096H47.8231ZM44.0911 16.008C44.4031 16.008 44.6591 15.896 44.8591 15.672C45.0591 15.44 45.1591 15.12 45.1591 14.712C45.1591 14.304 45.0591 13.988 44.8591 13.764C44.6591 13.54 44.4031 13.428 44.0911 13.428C43.7791 13.428 43.5231 13.54 43.3231 13.764C43.1231 13.988 43.0231 14.304 43.0231 14.712C43.0231 15.12 43.1231 15.44 43.3231 15.672C43.5231 15.896 43.7791 16.008 44.0911 16.008ZM55.6697 11.796H57.0977V13.776H55.7537V18H53.0417V13.776H52.1417V11.796H53.0417V11.76C53.0417 10.904 53.2977 10.228 53.8097 9.732C54.3217 9.228 55.0417 8.976 55.9697 8.976C56.2737 8.976 56.5697 9.004 56.8577 9.06C57.1457 9.116 57.3857 9.196 57.5777 9.3L56.9297 11.184C56.7057 11.08 56.5017 11.028 56.3177 11.028C56.1177 11.028 55.9577 11.092 55.8377 11.22C55.7257 11.34 55.6697 11.528 55.6697 11.784V11.796ZM58.8137 11.436H61.5257V18H58.8137V11.436ZM60.1697 10.908C59.6817 10.908 59.2857 10.78 58.9817 10.524C58.6857 10.26 58.5377 9.928 58.5377 9.528C58.5377 9.128 58.6857 8.8 58.9817 8.544C59.2857 8.28 59.6817 8.148 60.1697 8.148C60.6657 8.148 61.0617 8.272 61.3577 8.52C61.6537 8.768 61.8017 9.088 61.8017 9.48C61.8017 9.896 61.6537 10.24 61.3577 10.512C61.0617 10.776 60.6657 10.908 60.1697 10.908ZM62.7861 9.096H65.4981V18H62.7861V9.096ZM73.7442 14.712C73.7442 14.752 73.7322 14.964 73.7082 15.348H69.1482C69.2442 15.596 69.4042 15.788 69.6282 15.924C69.8522 16.052 70.1322 16.116 70.4682 16.116C70.7562 16.116 70.9962 16.08 71.1882 16.008C71.3882 15.936 71.6042 15.812 71.8362 15.636L73.2522 17.064C72.6122 17.768 71.6562 18.12 70.3842 18.12C69.5922 18.12 68.8962 17.976 68.2962 17.688C67.6962 17.392 67.2322 16.984 66.9042 16.464C66.5762 15.944 66.4122 15.36 66.4122 14.712C66.4122 14.056 66.5722 13.472 66.8922 12.96C67.2202 12.44 67.6642 12.036 68.2242 11.748C68.7922 11.46 69.4282 11.316 70.1322 11.316C70.7962 11.316 71.4002 11.448 71.9442 11.712C72.4962 11.976 72.9322 12.364 73.2522 12.876C73.5802 13.388 73.7442 14 73.7442 14.712ZM70.1562 13.164C69.8762 13.164 69.6442 13.24 69.4602 13.392C69.2762 13.544 69.1562 13.76 69.1002 14.04H71.2122C71.1562 13.768 71.0362 13.556 70.8522 13.404C70.6682 13.244 70.4362 13.164 70.1562 13.164Z" fill="#363A38"/>
<defs>
<filter id="filter0_i" x="90.9778" y="0" width="15.0222" height="20.7826" filterUnits="userSpaceOnUse" color-interpolation-filters="sRGB">
<feFlood flood-opacity="0" result="BackgroundImageFix"/>
<feBlend mode="normal" in="SourceGraphic" in2="BackgroundImageFix" result="shape"/>
<feColorMatrix in="SourceAlpha" type="matrix" values="0 0 0 0 0 0 0 0 0 0 0 0 0 0 0 0 0 0 127 0" result="hardAlpha"/>
<feOffset dy="2"/>
<feGaussianBlur stdDeviation="2"/>
<feComposite in2="hardAlpha" operator="arithmetic" k2="-1" k3="1"/>
<feColorMatrix type="matrix" values="0 0 0 0 0 0 0 0 0 0 0 0 0 0 0 0 0 0 0.15 0"/>
<feBlend mode="normal" in2="shape" result="effect1_innerShadow"/>
</filter>
<filter id="filter1_i" x="90.9778" y="13.5" width="11.5556" height="15.5" filterUnits="userSpaceOnUse" color-interpolation-filters="sRGB">
<feFlood flood-opacity="0" result="BackgroundImageFix"/>
<feBlend mode="normal" in="SourceGraphic" in2="BackgroundImageFix" result="shape"/>
<feColorMatrix in="SourceAlpha" type="matrix" values="0 0 0 0 0 0 0 0 0 0 0 0 0 0 0 0 0 0 127 0" result="hardAlpha"/>
<feOffset dy="2"/>
<feGaussianBlur stdDeviation="2"/>
<feComposite in2="hardAlpha" operator="arithmetic" k2="-1" k3="1"/>
<feColorMatrix type="matrix" values="0 0 0 0 0 0 0 0 0 0 0 0 0 0 0 0 0 0 0.15 0"/>
<feBlend mode="normal" in2="shape" result="effect1_innerShadow"/>
</filter>
</defs>
</svg>
