<svg width="99" height="76" viewBox="0 0 99 76" fill="none" xmlns="http://www.w3.org/2000/svg">
<path d="M98.5 53.5C98.5 57.6421 60.5391 68.5 39 68.5C17.4609 68.5 0 65.1421 0 61C0 56.8579 37.9609 46 59.5 46C81.0391 46 98.5 49.3579 98.5 53.5Z" fill="#C0EEE6" fill-opacity="0.7"/>
<path d="M37.983 53.027V57H14.928V53.027H24.759V22.345L15.595 27.913L13.478 24.433L25.368 17.067H29.631V53.027H37.983ZM49.9953 16.429C54.2873 16.429 57.5353 18.2077 59.7393 21.765C61.9626 25.3223 63.0743 30.407 63.0743 37.019C63.0743 43.6503 61.9626 48.7543 59.7393 52.331C57.5353 55.8883 54.2873 57.667 49.9953 57.667C45.7033 57.667 42.4456 55.8883 40.2223 52.331C38.0183 48.7543 36.9163 43.6503 36.9163 37.019C36.9163 30.407 38.0183 25.3223 40.2223 21.765C42.4456 18.2077 45.7033 16.429 49.9953 16.429ZM49.9953 20.344C47.54 20.344 45.6066 21.649 44.1953 24.259C42.784 26.8497 42.0783 31.103 42.0783 37.019C42.0783 41.4463 42.4166 44.9263 43.0933 47.459L55.3023 22.925C54.0843 21.2043 52.3153 20.344 49.9953 20.344ZM57.9413 37.019C57.9413 32.553 57.5933 29.0633 56.8973 26.55L44.7463 51.171C45.9643 52.8723 47.714 53.723 49.9953 53.723C52.47 53.723 54.413 52.418 55.8243 49.808C57.2357 47.198 57.9413 42.935 57.9413 37.019ZM87.2377 53.027V57H64.1827V53.027H74.0137V22.345L64.8497 27.913L62.7327 24.433L74.6227 17.067H78.8857V53.027H87.2377Z" fill="#30423E"/>
</svg>
