<svg width="99" height="76" viewBox="0 0 99 76" fill="none" xmlns="http://www.w3.org/2000/svg">
<path d="M98.5 53.5C98.5 57.6421 60.5391 68.5 39 68.5C17.4609 68.5 0 65.1421 0 61C0 56.8579 37.9609 46 59.5 46C81.0391 46 98.5 49.3579 98.5 53.5Z" fill="#C0EEE6" fill-opacity="0.7"/>
<path d="M20.368 16.429C24.66 16.429 27.908 18.2077 30.112 21.765C32.3353 25.3223 33.447 30.407 33.447 37.019C33.447 43.6503 32.3353 48.7543 30.112 52.331C27.908 55.8883 24.66 57.667 20.368 57.667C16.076 57.667 12.8183 55.8883 10.595 52.331C8.39097 48.7543 7.28897 43.6503 7.28897 37.019C7.28897 30.407 8.39097 25.3223 10.595 21.765C12.8183 18.2077 16.076 16.429 20.368 16.429ZM20.368 20.344C17.9126 20.344 15.9793 21.649 14.568 24.259C13.1566 26.8497 12.451 31.103 12.451 37.019C12.451 41.4463 12.7893 44.9263 13.466 47.459L25.675 22.925C24.457 21.2043 22.688 20.344 20.368 20.344ZM28.314 37.019C28.314 32.553 27.966 29.0633 27.27 26.55L15.119 51.171C16.337 52.8723 18.0866 53.723 20.368 53.723C22.8426 53.723 24.7856 52.418 26.197 49.808C27.6083 47.198 28.314 42.935 28.314 37.019ZM57.6103 53.027V57H34.5553V53.027H44.3863V22.345L35.2223 27.913L33.1053 24.433L44.9953 17.067H49.2583V53.027H57.6103ZM69.6227 16.429C73.9147 16.429 77.1627 18.2077 79.3667 21.765C81.59 25.3223 82.7017 30.407 82.7017 37.019C82.7017 43.6503 81.59 48.7543 79.3667 52.331C77.1627 55.8883 73.9147 57.667 69.6227 57.667C65.3307 57.667 62.073 55.8883 59.8497 52.331C57.6457 48.7543 56.5437 43.6503 56.5437 37.019C56.5437 30.407 57.6457 25.3223 59.8497 21.765C62.073 18.2077 65.3307 16.429 69.6227 16.429ZM69.6227 20.344C67.1673 20.344 65.234 21.649 63.8227 24.259C62.4113 26.8497 61.7057 31.103 61.7057 37.019C61.7057 41.4463 62.044 44.9263 62.7207 47.459L74.9297 22.925C73.7117 21.2043 71.9427 20.344 69.6227 20.344ZM77.5687 37.019C77.5687 32.553 77.2207 29.0633 76.5247 26.55L64.3737 51.171C65.5917 52.8723 67.3413 53.723 69.6227 53.723C72.0973 53.723 74.0403 52.418 75.4517 49.808C76.863 47.198 77.5687 42.935 77.5687 37.019Z" fill="#30423E"/>
</svg>
