<svg width="100" height="76" viewBox="0 0 100 76" fill="none" xmlns="http://www.w3.org/2000/svg">
<path d="M99.5 53.5C99.5 57.6421 61.5391 68.5 40 68.5C18.4609 68.5 1 65.1421 1 61C1 56.8579 38.9609 46 60.5 46C82.0391 46 99.5 49.3579 99.5 53.5Z" fill="#C0EEE6" fill-opacity="0.7"/>
<path d="M17.888 16.429C22.18 16.429 25.428 18.2077 27.632 21.765C29.8553 25.3223 30.967 30.407 30.967 37.019C30.967 43.6503 29.8553 48.7543 27.632 52.331C25.428 55.8883 22.18 57.667 17.888 57.667C13.596 57.667 10.3383 55.8883 8.11497 52.331C5.91097 48.7543 4.80897 43.6503 4.80897 37.019C4.80897 30.407 5.91097 25.3223 8.11497 21.765C10.3383 18.2077 13.596 16.429 17.888 16.429ZM17.888 20.344C15.4326 20.344 13.4993 21.649 12.088 24.259C10.6766 26.8497 9.97097 31.103 9.97097 37.019C9.97097 41.4463 10.3093 44.9263 10.986 47.459L23.195 22.925C21.977 21.2043 20.208 20.344 17.888 20.344ZM25.834 37.019C25.834 32.553 25.486 29.0633 24.79 26.55L12.639 51.171C13.857 52.8723 15.6066 53.723 17.888 53.723C20.3626 53.723 22.3056 52.418 23.717 49.808C25.1283 47.198 25.834 42.935 25.834 37.019ZM45.4153 16.429C49.7073 16.429 52.9553 18.2077 55.1593 21.765C57.3826 25.3223 58.4943 30.407 58.4943 37.019C58.4943 43.6503 57.3826 48.7543 55.1593 52.331C52.9553 55.8883 49.7073 57.667 45.4153 57.667C41.1233 57.667 37.8656 55.8883 35.6423 52.331C33.4383 48.7543 32.3363 43.6503 32.3363 37.019C32.3363 30.407 33.4383 25.3223 35.6423 21.765C37.8656 18.2077 41.1233 16.429 45.4153 16.429ZM45.4153 20.344C42.96 20.344 41.0266 21.649 39.6153 24.259C38.204 26.8497 37.4983 31.103 37.4983 37.019C37.4983 41.4463 37.8366 44.9263 38.5133 47.459L50.7223 22.925C49.5043 21.2043 47.7353 20.344 45.4153 20.344ZM53.3613 37.019C53.3613 32.553 53.0133 29.0633 52.3173 26.55L40.1663 51.171C41.3843 52.8723 43.134 53.723 45.4153 53.723C47.89 53.723 49.833 52.418 51.2443 49.808C52.6556 47.198 53.3613 42.935 53.3613 37.019ZM83.2377 53.027V57H60.1827V53.027H70.0137V22.345L60.8497 27.913L58.7327 24.433L70.6227 17.067H74.8857V53.027H83.2377Z" fill="#30423E"/>
</svg>
