<svg width="30" height="30" viewBox="0 0 30 30" fill="none" xmlns="http://www.w3.org/2000/svg">
<path d="M25.7201 1.14124H4.27986C1.91988 1.14124 0 3.06118 0 5.4211V19.8915C0 22.2514 1.91988 24.1713 4.27986 24.1713H5.95934L5.99221 27.9496C5.99514 28.2979 6.19512 28.6143 6.50836 28.7665C6.63568 28.8284 6.77273 28.8588 6.90914 28.8588C7.1083 28.8588 7.306 28.794 7.46959 28.6677L13.2953 24.1713H25.7201C28.0801 24.1713 30 22.2514 30 19.8915V5.4211C30 3.06118 28.0801 1.14124 25.7201 1.14124ZM28.1658 19.8915C28.1658 21.2401 27.0687 22.3372 25.7201 22.3372H12.9826C12.7798 22.3372 12.5828 22.4044 12.4222 22.5282L7.81025 26.0878L7.78553 23.2463C7.78119 22.7429 7.37186 22.3372 6.86848 22.3372H4.27986C2.93133 22.3372 1.83422 21.2401 1.83422 19.8915V5.4211C1.83422 4.07256 2.93133 2.97545 4.27986 2.97545H25.7202C27.0687 2.97545 28.1658 4.07256 28.1658 5.4211V19.8915H28.1658Z" fill="#7AD7C0"/>
</svg>
