<svg width="104" height="27" viewBox="0 0 104 27" fill="none" xmlns="http://www.w3.org/2000/svg">
<g filter="url(#filter0_i)">
<path d="M82.3334 2.93481L87.5334 2.93481L91.5779 9.39134L88.9779 13.5L82.3334 2.93481Z" fill="#4DBBA1"/>
</g>
<g filter="url(#filter1_i)">
<path d="M94.1777 13.5001L91.5777 9.39136L82.3333 24.0653H87.5333L94.1777 13.5001Z" fill="#C4C4C4"/>
</g>
<path d="M95.6222 0L88.9778 0L100.533 18.7826L104 13.5L95.6222 0Z" fill="#FFFAFA"/>
<path d="M88.9779 27L97.3557 13.5L100.533 18.7826L95.6223 27H88.9779Z" fill="#F8DEDE"/>
<path d="M85.9185 0L94.25 13.5L85.9185 27H6C2.68629 27 0 24.3137 0 21V6C0 2.68629 2.68629 0 6 0H85.9185Z" fill="#F8DEDE"/>
<path d="M15.0935 18.192C14.2055 18.192 13.4055 18.008 12.6935 17.64C11.9815 17.264 11.4215 16.744 11.0135 16.08C10.6135 15.408 10.4135 14.648 10.4135 13.8C10.4135 12.952 10.6135 12.196 11.0135 11.532C11.4215 10.86 11.9815 10.34 12.6935 9.972C13.4055 9.596 14.2055 9.408 15.0935 9.408C15.9095 9.408 16.6375 9.552 17.2775 9.84C17.9175 10.128 18.4455 10.544 18.8615 11.088L17.0735 12.684C16.5535 12.028 15.9415 11.7 15.2375 11.7C14.6455 11.7 14.1695 11.892 13.8095 12.276C13.4495 12.652 13.2695 13.16 13.2695 13.8C13.2695 14.44 13.4495 14.952 13.8095 15.336C14.1695 15.712 14.6455 15.9 15.2375 15.9C15.9415 15.9 16.5535 15.572 17.0735 14.916L18.8615 16.512C18.4455 17.056 17.9175 17.472 17.2775 17.76C16.6375 18.048 15.9095 18.192 15.0935 18.192ZM22.9474 18.12C22.2194 18.12 21.5634 17.976 20.9794 17.688C20.4034 17.392 19.9514 16.988 19.6234 16.476C19.2954 15.956 19.1314 15.368 19.1314 14.712C19.1314 14.056 19.2954 13.472 19.6234 12.96C19.9514 12.44 20.4034 12.036 20.9794 11.748C21.5634 11.46 22.2194 11.316 22.9474 11.316C23.6834 11.316 24.3394 11.46 24.9154 11.748C25.4994 12.036 25.9514 12.44 26.2714 12.96C26.5994 13.472 26.7634 14.056 26.7634 14.712C26.7634 15.368 26.5994 15.956 26.2714 16.476C25.9514 16.988 25.4994 17.392 24.9154 17.688C24.3394 17.976 23.6834 18.12 22.9474 18.12ZM22.9474 16.008C23.2594 16.008 23.5154 15.896 23.7154 15.672C23.9154 15.44 24.0154 15.12 24.0154 14.712C24.0154 14.304 23.9154 13.988 23.7154 13.764C23.5154 13.54 23.2594 13.428 22.9474 13.428C22.6354 13.428 22.3794 13.54 22.1794 13.764C21.9794 13.988 21.8794 14.304 21.8794 14.712C21.8794 15.12 21.9794 15.44 22.1794 15.672C22.3794 15.896 22.6354 16.008 22.9474 16.008ZM32.2322 11.316C33.0402 11.316 33.6882 11.56 34.1762 12.048C34.6722 12.536 34.9202 13.272 34.9202 14.256V18H32.2082V14.724C32.2082 13.972 31.9402 13.596 31.4042 13.596C31.1002 13.596 30.8522 13.704 30.6602 13.92C30.4762 14.128 30.3842 14.46 30.3842 14.916V18H27.6722V11.436H30.2522V12.084C30.5082 11.828 30.8042 11.636 31.1402 11.508C31.4762 11.38 31.8402 11.316 32.2322 11.316ZM40.994 17.772C40.586 18.004 40.03 18.12 39.326 18.12C38.406 18.12 37.698 17.9 37.202 17.46C36.706 17.012 36.458 16.344 36.458 15.456V13.776H35.558V11.796H36.458V9.96H39.17V11.796H40.514V13.776H39.17V15.432C39.17 15.632 39.222 15.788 39.326 15.9C39.43 16.012 39.566 16.068 39.734 16.068C39.966 16.068 40.17 16.008 40.346 15.888L40.994 17.772ZM44.6775 11.316C45.8295 11.316 46.7095 11.576 47.3175 12.096C47.9255 12.608 48.2295 13.4 48.2295 14.472V18H45.7095V17.136C45.3975 17.792 44.7775 18.12 43.8495 18.12C43.3295 18.12 42.8855 18.032 42.5175 17.856C42.1575 17.672 41.8815 17.428 41.6895 17.124C41.5055 16.812 41.4135 16.464 41.4135 16.08C41.4135 15.432 41.6615 14.94 42.1575 14.604C42.6535 14.268 43.4055 14.1 44.4135 14.1H45.5055C45.4175 13.588 45.0055 13.332 44.2695 13.332C43.9735 13.332 43.6735 13.38 43.3695 13.476C43.0655 13.564 42.8055 13.688 42.5895 13.848L41.7255 12.06C42.1015 11.828 42.5535 11.648 43.0815 11.52C43.6175 11.384 44.1495 11.316 44.6775 11.316ZM44.6655 16.488C44.8575 16.488 45.0295 16.436 45.1815 16.332C45.3335 16.228 45.4455 16.072 45.5175 15.864V15.408H44.8455C44.2935 15.408 44.0175 15.592 44.0175 15.96C44.0175 16.112 44.0735 16.24 44.1855 16.344C44.3055 16.44 44.4655 16.488 44.6655 16.488ZM53.1067 18.12C52.3627 18.12 51.6947 17.976 51.1027 17.688C50.5187 17.4 50.0587 16.996 49.7227 16.476C49.3947 15.956 49.2307 15.368 49.2307 14.712C49.2307 14.056 49.3947 13.472 49.7227 12.96C50.0587 12.44 50.5187 12.036 51.1027 11.748C51.6947 11.46 52.3627 11.316 53.1067 11.316C53.9067 11.316 54.5907 11.488 55.1587 11.832C55.7267 12.176 56.1187 12.652 56.3347 13.26L54.2347 14.292C53.9787 13.716 53.5987 13.428 53.0947 13.428C52.7747 13.428 52.5067 13.54 52.2907 13.764C52.0827 13.988 51.9787 14.304 51.9787 14.712C51.9787 15.128 52.0827 15.448 52.2907 15.672C52.5067 15.896 52.7747 16.008 53.0947 16.008C53.5987 16.008 53.9787 15.72 54.2347 15.144L56.3347 16.176C56.1187 16.784 55.7267 17.26 55.1587 17.604C54.5907 17.948 53.9067 18.12 53.1067 18.12ZM61.9747 17.772C61.5667 18.004 61.0107 18.12 60.3067 18.12C59.3867 18.12 58.6787 17.9 58.1827 17.46C57.6867 17.012 57.4387 16.344 57.4387 15.456V13.776H56.5387V11.796H57.4387V9.96H60.1508V11.796H61.4947V13.776H60.1508V15.432C60.1508 15.632 60.2027 15.788 60.3067 15.9C60.4107 16.012 60.5467 16.068 60.7147 16.068C60.9467 16.068 61.1507 16.008 61.3267 15.888L61.9747 17.772ZM73.5519 11.436V18H70.9719V17.376C70.7319 17.624 70.4519 17.812 70.1319 17.94C69.8119 18.06 69.4719 18.12 69.1119 18.12C68.2799 18.12 67.6119 17.868 67.1079 17.364C66.6039 16.852 66.3519 16.084 66.3519 15.06V11.436H69.0639V14.592C69.0639 15.04 69.1359 15.36 69.2799 15.552C69.4239 15.744 69.6359 15.84 69.9159 15.84C70.1799 15.84 70.3999 15.736 70.5759 15.528C70.7519 15.312 70.8399 14.976 70.8399 14.52V11.436H73.5519ZM77.3828 18.12C76.8228 18.12 76.2708 18.06 75.7268 17.94C75.1828 17.82 74.7428 17.664 74.4068 17.472L75.1508 15.684C75.4548 15.868 75.8148 16.012 76.2308 16.116C76.6468 16.22 77.0508 16.272 77.4428 16.272C77.7548 16.272 77.9708 16.248 78.0908 16.2C78.2188 16.144 78.2828 16.064 78.2828 15.96C78.2828 15.856 78.2028 15.784 78.0428 15.744C77.8908 15.704 77.6388 15.664 77.2868 15.624C76.7508 15.56 76.2948 15.48 75.9188 15.384C75.5428 15.28 75.2108 15.084 74.9228 14.796C74.6428 14.508 74.5028 14.096 74.5028 13.56C74.5028 13.136 74.6308 12.756 74.8868 12.42C75.1428 12.084 75.5228 11.816 76.0268 11.616C76.5388 11.416 77.1508 11.316 77.8628 11.316C78.3588 11.316 78.8428 11.364 79.3148 11.46C79.7948 11.548 80.2028 11.68 80.5388 11.856L79.7948 13.644C79.2188 13.324 78.5868 13.164 77.8988 13.164C77.3068 13.164 77.0108 13.268 77.0108 13.476C77.0108 13.58 77.0908 13.656 77.2508 13.704C77.4108 13.744 77.6628 13.784 78.0068 13.824C78.5428 13.888 78.9948 13.972 79.3628 14.076C79.7388 14.18 80.0668 14.376 80.3468 14.664C80.6348 14.952 80.7788 15.364 80.7788 15.9C80.7788 16.308 80.6508 16.68 80.3948 17.016C80.1388 17.352 79.7548 17.62 79.2428 17.82C78.7308 18.02 78.1108 18.12 77.3828 18.12Z" fill="#FF6D6A"/>
<defs>
<filter id="filter0_i" x="82.3334" y="2.93481" width="9.24444" height="12.5652" filterUnits="userSpaceOnUse" color-interpolation-filters="sRGB">
<feFlood flood-opacity="0" result="BackgroundImageFix"/>
<feBlend mode="normal" in="SourceGraphic" in2="BackgroundImageFix" result="shape"/>
<feColorMatrix in="SourceAlpha" type="matrix" values="0 0 0 0 0 0 0 0 0 0 0 0 0 0 0 0 0 0 127 0" result="hardAlpha"/>
<feOffset dy="2"/>
<feGaussianBlur stdDeviation="2"/>
<feComposite in2="hardAlpha" operator="arithmetic" k2="-1" k3="1"/>
<feColorMatrix type="matrix" values="0 0 0 0 0 0 0 0 0 0 0 0 0 0 0 0 0 0 0.15 0"/>
<feBlend mode="normal" in2="shape" result="effect1_innerShadow"/>
</filter>
<filter id="filter1_i" x="82.3333" y="9.39136" width="11.8444" height="16.6739" filterUnits="userSpaceOnUse" color-interpolation-filters="sRGB">
<feFlood flood-opacity="0" result="BackgroundImageFix"/>
<feBlend mode="normal" in="SourceGraphic" in2="BackgroundImageFix" result="shape"/>
<feColorMatrix in="SourceAlpha" type="matrix" values="0 0 0 0 0 0 0 0 0 0 0 0 0 0 0 0 0 0 127 0" result="hardAlpha"/>
<feOffset dy="2"/>
<feGaussianBlur stdDeviation="2"/>
<feComposite in2="hardAlpha" operator="arithmetic" k2="-1" k3="1"/>
<feColorMatrix type="matrix" values="0 0 0 0 0 0 0 0 0 0 0 0 0 0 0 0 0 0 0.15 0"/>
<feBlend mode="normal" in2="shape" result="effect1_innerShadow"/>
</filter>
</defs>
</svg>
