<svg width="21" height="20" viewBox="0 0 21 20" fill="none" xmlns="http://www.w3.org/2000/svg">
<path d="M13.6779 18.5333H7.32193C6.88429 18.5318 6.4633 18.3654 6.14291 18.0672C5.82252 17.7691 5.62626 17.3612 5.59326 16.9248L4.75659 5.33333H16.2433L16.2333 5.47627L15.4066 16.9248C15.3736 17.3612 15.1773 17.7691 14.8569 18.0672C14.5365 18.3654 14.1156 18.5318 13.6779 18.5333ZM5.85899 16.9056C5.88696 17.2749 6.05307 17.6201 6.32421 17.8723C6.59535 18.1246 6.95159 18.2654 7.32193 18.2667H13.6779C14.0483 18.2654 14.4045 18.1246 14.6756 17.8723C14.9468 17.6201 15.1129 17.2749 15.1409 16.9056L15.9566 5.6H5.04326L5.85899 16.9056Z" fill="#7AD7C0" stroke="#7AD7C0" stroke-width="0.5"/>
<path d="M12.7665 3.33333H8.23315V2.13333C8.23337 1.95659 8.30367 1.78714 8.42865 1.66216C8.55363 1.53718 8.72307 1.46688 8.89982 1.46667H12.0998C12.2766 1.46688 12.446 1.53718 12.571 1.66216C12.696 1.78714 12.7663 1.95659 12.7665 2.13333V3.33333ZM8.49982 3.06667H12.4998V2.13333C12.4998 2.02725 12.4577 1.9255 12.3827 1.85049C12.3076 1.77548 12.2059 1.73333 12.0998 1.73333H8.89982C8.79373 1.73333 8.69199 1.77548 8.61698 1.85049C8.54196 1.9255 8.49982 2.02725 8.49982 2.13333V3.06667Z" fill="#7AD7C0" stroke="#7AD7C0" stroke-width="0.5"/>
<path d="M16.5002 5.6H4.50016C4.32342 5.59979 4.15397 5.52948 4.02899 5.4045C3.90401 5.27953 3.83371 5.11008 3.8335 4.93333V3.73334C3.83371 3.55659 3.90401 3.38715 4.02899 3.26217C4.15397 3.13719 4.32342 3.06689 4.50016 3.06667H16.5002C16.6769 3.06689 16.8464 3.13719 16.9713 3.26217C17.0963 3.38715 17.1666 3.55659 17.1668 3.73334V4.93333C17.1666 5.11008 17.0963 5.27953 16.9713 5.4045C16.8464 5.52948 16.6769 5.59979 16.5002 5.6ZM4.50016 3.33334C4.39408 3.33334 4.29233 3.37548 4.21732 3.4505C4.14231 3.52551 4.10016 3.62725 4.10016 3.73334V4.93333C4.10016 5.03942 4.14231 5.14116 4.21732 5.21618C4.29233 5.29119 4.39408 5.33333 4.50016 5.33333H16.5002C16.6062 5.33333 16.708 5.29119 16.783 5.21618C16.858 5.14116 16.9002 5.03942 16.9002 4.93333V3.73334C16.9002 3.62725 16.858 3.52551 16.783 3.4505C16.708 3.37548 16.6062 3.33334 16.5002 3.33334H4.50016Z" fill="#7AD7C0" stroke="#7AD7C0" stroke-width="0.5"/>
<path d="M7.96659 15.9333C7.93123 15.9333 7.89731 15.9193 7.87231 15.8943C7.8473 15.8693 7.83325 15.8354 7.83325 15.8V8.06667C7.83325 8.0313 7.8473 7.99739 7.87231 7.97239C7.89731 7.94738 7.93123 7.93333 7.96659 7.93333C8.00195 7.93333 8.03587 7.94738 8.06087 7.97239C8.08588 7.99739 8.09993 8.0313 8.09993 8.06667V15.8C8.09993 15.8354 8.08588 15.8693 8.06087 15.8943C8.03587 15.9193 8.00195 15.9333 7.96659 15.9333Z" fill="#7AD7C0" stroke="#7AD7C0" stroke-width="0.5"/>
<path d="M10.5 15.9333C10.4647 15.9333 10.4308 15.9193 10.4058 15.8943C10.3807 15.8693 10.3667 15.8354 10.3667 15.8V8.06667C10.3667 8.0313 10.3807 7.99739 10.4058 7.97239C10.4308 7.94738 10.4647 7.93333 10.5 7.93333C10.5354 7.93333 10.5693 7.94738 10.5943 7.97239C10.6193 7.99739 10.6334 8.0313 10.6334 8.06667V15.8C10.6334 15.8354 10.6193 15.8693 10.5943 15.8943C10.5693 15.9193 10.5354 15.9333 10.5 15.9333Z" fill="#7AD7C0" stroke="#7AD7C0" stroke-width="0.5"/>
<path d="M13.0335 15.9333C12.9981 15.9333 12.9642 15.9193 12.9392 15.8943C12.9142 15.8693 12.9001 15.8354 12.9001 15.8V8.06667C12.9001 8.0313 12.9142 7.99739 12.9392 7.97239C12.9642 7.94738 12.9981 7.93333 13.0335 7.93333C13.0688 7.93333 13.1028 7.94738 13.1278 7.97239C13.1528 7.99739 13.1668 8.0313 13.1668 8.06667V15.8C13.1668 15.8354 13.1528 15.8693 13.1278 15.8943C13.1028 15.9193 13.0688 15.9333 13.0335 15.9333Z" fill="#7AD7C0" stroke="#7AD7C0" stroke-width="0.5"/>
</svg>
