<svg width="32" height="32" viewBox="0 0 32 32" fill="none" xmlns="http://www.w3.org/2000/svg">
<path fill-rule="evenodd" clip-rule="evenodd" d="M15.5992 0.00496835C7.86895 0.00496835 1.6 6.59579 1.6 14.7254C1.6 21.2299 5.61084 26.7459 11.1735 28.6933C11.8736 28.8297 12.131 28.3733 12.131 27.9842C12.131 27.6332 12.117 26.4737 12.1113 25.2446C8.21623 26.1352 7.39515 23.507 7.39515 23.507C6.75851 21.8052 5.84078 21.3526 5.84078 21.3526C4.57066 20.4381 5.93742 20.4582 5.93742 20.4582C7.34291 20.5615 8.08288 21.9742 8.08288 21.9742C9.33236 24.2248 11.359 23.5733 12.1573 23.1978C12.2834 22.2464 12.6451 21.5966 13.0461 21.2287C9.93636 20.8576 6.66755 19.5949 6.66755 13.9538C6.66755 12.3471 7.21529 11.0333 8.10975 10.0031C7.96406 9.63145 7.48453 8.13506 8.24462 6.10779C8.24462 6.10779 9.42016 5.7117 12.0958 7.61669C13.2119 7.29122 14.4092 7.12713 15.5982 7.1217C16.7882 7.12713 17.9875 7.29067 19.1052 7.61669C21.7773 5.71281 22.9517 6.10779 22.9517 6.10779C23.7129 8.13561 23.2355 9.63306 23.0897 10.0031C23.9873 11.0333 24.5304 12.3471 24.5304 13.9538C24.5304 19.6079 21.2543 20.8511 18.1379 21.2157C18.6402 21.6721 19.0887 22.5681 19.0887 23.9406C19.0887 25.9092 19.0727 27.4957 19.0727 27.9798C19.0727 28.3716 19.3248 28.8297 20.0348 28.6862C25.5943 26.7378 29.6 21.2211 29.6 14.7205C29.6 6.59193 23.3321 0 15.6003 0L15.5992 0.00496835Z" fill="#B2B7B5"/>
</svg>
