<svg width="27" height="27" viewBox="0 0 27 27" fill="none" xmlns="http://www.w3.org/2000/svg">
<g clip-path="url(#clip0)">
<path d="M26.3939 10.6787H23.6538C23.4353 10.6787 23.2583 10.8558 23.2583 11.0742C23.2583 11.2926 23.4353 11.4697 23.6538 11.4697H26.2093V13.5C26.2093 14.2914 26.136 15.083 25.9914 15.8531C25.5602 18.1586 24.5228 20.2179 23.0631 21.8816L19.7424 19.4827C20.672 18.5099 21.3749 17.3242 21.7686 16.0418C21.8054 15.9219 21.7831 15.7916 21.7085 15.6907C21.6339 15.5898 21.5159 15.5303 21.3905 15.5303H13.8959V11.4697H21.9419C22.1603 11.4697 22.3374 11.2926 22.3374 11.0742C22.3374 10.8558 22.1603 10.6787 21.9419 10.6787H13.7113C13.3769 10.6787 13.1048 10.9508 13.1048 11.2852V15.7148C13.1048 16.0492 13.3769 16.3213 13.7113 16.3213H20.8363C19.6767 19.355 16.7932 21.3574 13.5003 21.3574C11.777 21.3574 10.1412 20.81 8.76992 19.7744C8.59563 19.6428 8.34757 19.6774 8.21594 19.8516C8.08426 20.026 8.11891 20.274 8.2932 20.4056C9.80293 21.5458 11.6035 22.1484 13.5003 22.1484C15.3879 22.1484 17.1814 21.5511 18.687 20.4209C18.8495 20.299 19.0071 20.171 19.1602 20.038L22.5187 22.4642C20.1992 24.7951 16.9924 26.209 13.5 26.209C13.4703 26.209 13.4404 26.2089 13.4107 26.2087C8.6076 26.1756 4.42745 23.4546 2.29545 19.485L5.67003 17.1725C6.01265 17.9029 6.45815 18.5874 6.99941 19.2038C7.07756 19.2928 7.18688 19.3383 7.29678 19.3383C7.38944 19.3383 7.48246 19.3059 7.55761 19.24C7.72171 19.0959 7.73796 18.846 7.59383 18.6819C6.32283 17.2344 5.63011 15.3748 5.64319 13.4455C5.6723 9.14293 9.19706 5.64258 13.5003 5.64258C15.5262 5.64258 17.4498 6.4116 18.9166 7.8079C19.1565 8.03624 19.5282 8.0315 19.7627 7.79699L22.896 4.66362C23.0118 4.54786 23.0748 4.39399 23.0734 4.2303C23.0721 4.06593 23.0061 3.91236 22.8878 3.79777C20.3561 1.34873 17.0223 0 13.5003 0C11.4498 0 9.4803 0.448137 7.64652 1.33186C7.44976 1.42668 7.36713 1.66308 7.46195 1.85989C7.55676 2.05659 7.79301 2.13922 7.98997 2.04446C9.71576 1.21273 11.5697 0.791016 13.5003 0.791016C16.7537 0.791016 19.8369 2.01371 22.2032 4.23789L19.3296 7.11144C17.7325 5.65265 15.6697 4.85156 13.5003 4.85156C11.1924 4.85156 9.02563 5.74114 7.39898 7.35645C6.77207 7.97903 6.2529 8.68282 5.85007 9.44452L2.54236 7.05454C3.52279 5.38871 4.88714 3.94316 6.5652 2.84829C6.74813 2.7289 6.79965 2.48384 6.68032 2.30096C6.56098 2.11797 6.31592 2.0665 6.13299 2.18584C2.30305 4.68471 0.0104726 8.90293 0.000400347 13.4696C-0.00756254 17.075 1.37782 20.4635 3.90127 23.0107C6.42492 25.5582 9.80019 26.9748 13.4053 26.9997C13.4364 26.9999 13.4671 27.0001 13.4982 27.0001C16.6525 26.9999 19.7175 25.8924 22.1374 23.8758C24.55 21.8653 26.1949 19.0678 26.7689 15.9988C26.9225 15.181 27.0003 14.3403 27.0003 13.5V11.2852C27.0003 10.9508 26.7283 10.6787 26.3939 10.6787ZM2.15971 7.75401L5.50756 10.1729C5.08531 11.194 4.85987 12.299 4.85212 13.4401C4.84516 14.4674 5.02056 15.4765 5.36132 16.4252L1.94029 18.7696C1.19953 17.154 0.78725 15.359 0.791416 13.4714C0.795846 11.4481 1.27647 9.49746 2.15971 7.75401Z" fill="white"/>
</g>
<defs>
<clipPath id="clip0">
<rect width="27" height="27" fill="white"/>
</clipPath>
</defs>
</svg>
