<svg width="104" height="27" viewBox="0 0 104 27" fill="none" xmlns="http://www.w3.org/2000/svg">
<g filter="url(#filter0_i)">
<path d="M82.3334 2.93481L87.5334 2.93481L91.5779 9.39134L88.9779 13.5L82.3334 2.93481Z" fill="#4DBBA1"/>
</g>
<g filter="url(#filter1_i)">
<path d="M94.1777 13.5L91.5777 9.3913L82.3333 24.0652H87.5333L94.1777 13.5Z" fill="#C4C4C4"/>
</g>
<path d="M95.6222 0L88.9778 0L100.533 18.7826L104 13.5L95.6222 0Z" fill="#FFFAFA"/>
<path d="M88.9779 27L97.3557 13.5L100.533 18.7826L95.6223 27H88.9779Z" fill="#F8DEDE"/>
<path d="M85.9185 0L94.25 13.5L85.9185 27H6C2.68629 27 0 24.3137 0 21V6C0 2.68629 2.68629 0 6 0H85.9185Z" fill="#F8DEDE"/>
<path d="M27.3762 9.6H30.2082V15.804H34.0002V18H27.3762V9.6ZM38.2264 18.12C37.4984 18.12 36.8424 17.976 36.2584 17.688C35.6824 17.392 35.2304 16.988 34.9024 16.476C34.5744 15.956 34.4104 15.368 34.4104 14.712C34.4104 14.056 34.5744 13.472 34.9024 12.96C35.2304 12.44 35.6824 12.036 36.2584 11.748C36.8424 11.46 37.4984 11.316 38.2264 11.316C38.9624 11.316 39.6184 11.46 40.1944 11.748C40.7784 12.036 41.2304 12.44 41.5504 12.96C41.8784 13.472 42.0424 14.056 42.0424 14.712C42.0424 15.368 41.8784 15.956 41.5504 16.476C41.2304 16.988 40.7784 17.392 40.1944 17.688C39.6184 17.976 38.9624 18.12 38.2264 18.12ZM38.2264 16.008C38.5384 16.008 38.7944 15.896 38.9944 15.672C39.1944 15.44 39.2944 15.12 39.2944 14.712C39.2944 14.304 39.1944 13.988 38.9944 13.764C38.7944 13.54 38.5384 13.428 38.2264 13.428C37.9144 13.428 37.6584 13.54 37.4584 13.764C37.2584 13.988 37.1584 14.304 37.1584 14.712C37.1584 15.12 37.2584 15.44 37.4584 15.672C37.6584 15.896 37.9144 16.008 38.2264 16.008ZM50.2832 11.436V16.692C50.2832 17.94 49.9352 18.876 49.2392 19.5C48.5512 20.132 47.5673 20.448 46.2872 20.448C45.6312 20.448 45.0192 20.376 44.4512 20.232C43.8832 20.096 43.3992 19.896 42.9992 19.632L43.9112 17.784C44.1672 17.976 44.4912 18.132 44.8832 18.252C45.2752 18.372 45.6512 18.432 46.0112 18.432C46.5552 18.432 46.9512 18.316 47.1992 18.084C47.4473 17.852 47.5713 17.512 47.5713 17.064V16.944C47.1632 17.408 46.5592 17.64 45.7592 17.64C45.1992 17.64 44.6752 17.512 44.1872 17.256C43.7072 16.992 43.3232 16.62 43.0352 16.14C42.7472 15.652 42.6032 15.096 42.6032 14.472C42.6032 13.848 42.7472 13.296 43.0352 12.816C43.3232 12.336 43.7072 11.968 44.1872 11.712C44.6752 11.448 45.1992 11.316 45.7592 11.316C46.6552 11.316 47.3032 11.604 47.7032 12.18V11.436H50.2832ZM46.4792 15.528C46.7992 15.528 47.0632 15.432 47.2713 15.24C47.4872 15.04 47.5952 14.784 47.5952 14.472C47.5952 14.16 47.4872 13.908 47.2713 13.716C47.0632 13.524 46.7992 13.428 46.4792 13.428C46.1512 13.428 45.8792 13.524 45.6632 13.716C45.4552 13.908 45.3512 14.16 45.3512 14.472C45.3512 14.784 45.4592 15.04 45.6752 15.24C45.8912 15.432 46.1592 15.528 46.4792 15.528ZM55.2002 11.436H57.9122V18H55.2002V11.436ZM56.5562 10.908C56.0682 10.908 55.6722 10.78 55.3682 10.524C55.0722 10.26 54.9242 9.928 54.9242 9.528C54.9242 9.128 55.0722 8.8 55.3682 8.544C55.6722 8.28 56.0682 8.148 56.5562 8.148C57.0522 8.148 57.4482 8.272 57.7442 8.52C58.0402 8.768 58.1882 9.088 58.1882 9.48C58.1882 9.896 58.0402 10.24 57.7442 10.512C57.4482 10.776 57.0522 10.908 56.5562 10.908ZM63.7342 11.316C64.5422 11.316 65.1902 11.56 65.6782 12.048C66.1742 12.536 66.4222 13.272 66.4222 14.256V18H63.7102V14.724C63.7102 13.972 63.4422 13.596 62.9062 13.596C62.6022 13.596 62.3542 13.704 62.1622 13.92C61.9782 14.128 61.8862 14.46 61.8862 14.916V18H59.1742V11.436H61.7542V12.084C62.0102 11.828 62.3062 11.636 62.6422 11.508C62.9782 11.38 63.3422 11.316 63.7342 11.316Z" fill="#FF6D6A"/>
<defs>
<filter id="filter0_i" x="82.3334" y="2.93481" width="9.24444" height="12.5652" filterUnits="userSpaceOnUse" color-interpolation-filters="sRGB">
<feFlood flood-opacity="0" result="BackgroundImageFix"/>
<feBlend mode="normal" in="SourceGraphic" in2="BackgroundImageFix" result="shape"/>
<feColorMatrix in="SourceAlpha" type="matrix" values="0 0 0 0 0 0 0 0 0 0 0 0 0 0 0 0 0 0 127 0" result="hardAlpha"/>
<feOffset dy="2"/>
<feGaussianBlur stdDeviation="2"/>
<feComposite in2="hardAlpha" operator="arithmetic" k2="-1" k3="1"/>
<feColorMatrix type="matrix" values="0 0 0 0 0 0 0 0 0 0 0 0 0 0 0 0 0 0 0.15 0"/>
<feBlend mode="normal" in2="shape" result="effect1_innerShadow"/>
</filter>
<filter id="filter1_i" x="82.3333" y="9.3913" width="11.8444" height="16.6739" filterUnits="userSpaceOnUse" color-interpolation-filters="sRGB">
<feFlood flood-opacity="0" result="BackgroundImageFix"/>
<feBlend mode="normal" in="SourceGraphic" in2="BackgroundImageFix" result="shape"/>
<feColorMatrix in="SourceAlpha" type="matrix" values="0 0 0 0 0 0 0 0 0 0 0 0 0 0 0 0 0 0 127 0" result="hardAlpha"/>
<feOffset dy="2"/>
<feGaussianBlur stdDeviation="2"/>
<feComposite in2="hardAlpha" operator="arithmetic" k2="-1" k3="1"/>
<feColorMatrix type="matrix" values="0 0 0 0 0 0 0 0 0 0 0 0 0 0 0 0 0 0 0.15 0"/>
<feBlend mode="normal" in2="shape" result="effect1_innerShadow"/>
</filter>
</defs>
</svg>
