<svg width="29" height="29" viewBox="0 0 29 29" fill="none" xmlns="http://www.w3.org/2000/svg">
<path fill-rule="evenodd" clip-rule="evenodd" d="M12.8405 17.2339L18.1737 25.8862C18.407 26.2653 18.7716 26.261 18.9189 26.2406C19.0662 26.2201 19.4205 26.1297 19.5489 25.6995L26.2178 3.17556C26.3345 2.77744 26.1201 2.50619 26.0239 2.40994C25.9305 2.31369 25.6637 2.10806 25.2772 2.21744L2.73721 8.81785C2.30992 8.94327 2.21659 9.30202 2.19617 9.44931C2.17575 9.59952 2.16992 9.97139 2.54763 10.2091L11.2991 15.6822L19.0312 7.86848C19.4555 7.43973 20.1483 7.43535 20.5785 7.85973C21.0087 8.2841 21.0116 8.97827 20.5872 9.40702L12.8405 17.2339ZM18.8051 28.4368C17.7901 28.4368 16.8597 27.9206 16.3114 27.0339L10.6574 17.8595L1.38825 12.0626C0.389295 11.437 -0.132789 10.3229 0.0290864 9.15181C0.189503 7.98077 0.993045 7.05035 2.12179 6.71931L24.6618 0.118894C25.6987 -0.184439 26.8099 0.102853 27.5741 0.864102C28.3383 1.63264 28.6226 2.75556 28.3135 3.79681L21.6445 26.3193C21.3105 27.4524 20.3772 28.2531 19.2091 28.4091C19.072 28.4266 18.9393 28.4368 18.8051 28.4368Z" fill="#7AD7C0"/>
</svg>
