<svg width="104" height="27" viewBox="0 0 104 27" fill="none" xmlns="http://www.w3.org/2000/svg">
<g filter="url(#filter0_i)">
<path d="M82.3334 2.93481L87.5334 2.93481L91.5779 9.39134L88.9779 13.5L82.3334 2.93481Z" fill="#4DBBA1"/>
</g>
<g filter="url(#filter1_i)">
<path d="M94.1777 13.5L91.5777 9.3913L82.3333 24.0652H87.5333L94.1777 13.5Z" fill="#C4C4C4"/>
</g>
<path d="M95.6222 0L88.9778 0L100.533 18.7826L104 13.5L95.6222 0Z" fill="#FFFAFA"/>
<path d="M88.9779 27L97.3557 13.5L100.533 18.7826L95.6223 27H88.9779Z" fill="#F8DEDE"/>
<path d="M85.9185 0L94.25 13.5L85.9185 27H6C2.68629 27 0 24.3137 0 21V6C0 2.68629 2.68629 0 6 0H85.9185Z" fill="#F8DEDE"/>
<path d="M27.288 18.4193C26.592 18.4193 25.912 18.3433 25.248 18.1913C24.592 18.0313 24.052 17.8193 23.628 17.5553L24.54 15.4913C24.94 15.7233 25.388 15.9113 25.884 16.0553C26.38 16.1913 26.856 16.2593 27.312 16.2593C27.704 16.2593 27.984 16.2233 28.152 16.1513C28.32 16.0713 28.404 15.9553 28.404 15.8033C28.404 15.6273 28.292 15.4953 28.068 15.4073C27.852 15.3193 27.492 15.2233 26.988 15.1193C26.34 14.9833 25.8 14.8393 25.368 14.6873C24.936 14.5273 24.56 14.2713 24.24 13.9193C23.92 13.5593 23.76 13.0753 23.76 12.4673C23.76 11.9393 23.908 11.4593 24.204 11.0273C24.5 10.5953 24.94 10.2553 25.524 10.0073C26.116 9.75927 26.832 9.63527 27.672 9.63527C28.248 9.63527 28.812 9.69927 29.364 9.82727C29.924 9.94727 30.416 10.1273 30.84 10.3673L29.988 12.4193C29.164 12.0033 28.384 11.7953 27.648 11.7953C26.92 11.7953 26.556 11.9713 26.556 12.3233C26.556 12.4913 26.664 12.6193 26.88 12.7073C27.096 12.7873 27.452 12.8753 27.948 12.9713C28.588 13.0913 29.128 13.2313 29.568 13.3913C30.008 13.5433 30.388 13.7953 30.708 14.1473C31.036 14.4993 31.2 14.9793 31.2 15.5873C31.2 16.1153 31.052 16.5953 30.756 17.0273C30.46 17.4513 30.016 17.7913 29.424 18.0473C28.84 18.2953 28.128 18.4193 27.288 18.4193ZM32.0187 11.6633H34.7307V18.2273H32.0187V11.6633ZM33.3747 11.1353C32.8867 11.1353 32.4907 11.0073 32.1867 10.7513C31.8907 10.4873 31.7427 10.1553 31.7427 9.75527C31.7427 9.35527 31.8907 9.02727 32.1867 8.77127C32.4907 8.50727 32.8867 8.37527 33.3747 8.37527C33.8707 8.37527 34.2667 8.49927 34.5627 8.74727C34.8587 8.99527 35.0067 9.31527 35.0067 9.70727C35.0067 10.1233 34.8587 10.4673 34.5627 10.7393C34.2667 11.0033 33.8707 11.1353 33.3747 11.1353ZM43.3248 11.6633V16.9193C43.3248 18.1673 42.9768 19.1033 42.2808 19.7273C41.5928 20.3593 40.6088 20.6753 39.3288 20.6753C38.6728 20.6753 38.0608 20.6033 37.4928 20.4593C36.9248 20.3233 36.4408 20.1233 36.0408 19.8593L36.9528 18.0113C37.2088 18.2033 37.5328 18.3593 37.9248 18.4793C38.3168 18.5993 38.6928 18.6593 39.0528 18.6593C39.5968 18.6593 39.9928 18.5433 40.2408 18.3113C40.4888 18.0793 40.6128 17.7393 40.6128 17.2913V17.1713C40.2048 17.6353 39.6008 17.8673 38.8008 17.8673C38.2408 17.8673 37.7168 17.7393 37.2288 17.4833C36.7488 17.2193 36.3648 16.8473 36.0768 16.3673C35.7888 15.8793 35.6448 15.3233 35.6448 14.6993C35.6448 14.0753 35.7888 13.5233 36.0768 13.0433C36.3648 12.5633 36.7488 12.1953 37.2288 11.9393C37.7168 11.6753 38.2408 11.5433 38.8008 11.5433C39.6968 11.5433 40.3448 11.8313 40.7448 12.4073V11.6633H43.3248ZM39.5208 15.7553C39.8408 15.7553 40.1048 15.6593 40.3128 15.4673C40.5288 15.2673 40.6368 15.0113 40.6368 14.6993C40.6368 14.3873 40.5288 14.1353 40.3128 13.9433C40.1048 13.7513 39.8408 13.6553 39.5208 13.6553C39.1928 13.6553 38.9208 13.7513 38.7048 13.9433C38.4968 14.1353 38.3928 14.3873 38.3928 14.6993C38.3928 15.0113 38.5008 15.2673 38.7168 15.4673C38.9328 15.6593 39.2008 15.7553 39.5208 15.7553ZM49.1441 11.5433C49.9521 11.5433 50.6001 11.7873 51.0881 12.2753C51.5841 12.7633 51.8321 13.4993 51.8321 14.4833V18.2273H49.1201V14.9513C49.1201 14.1993 48.8521 13.8233 48.3161 13.8233C48.0121 13.8233 47.7641 13.9313 47.5721 14.1473C47.3881 14.3553 47.2961 14.6873 47.2961 15.1433V18.2273H44.5841V11.6633H47.1641V12.3113C47.4201 12.0553 47.7161 11.8633 48.0521 11.7353C48.3881 11.6073 48.7521 11.5433 49.1441 11.5433ZM60.8315 18.4193C59.5435 18.4193 58.5395 18.0713 57.8195 17.3753C57.0995 16.6793 56.7395 15.7033 56.7395 14.4473V9.82727H59.5715V14.3633C59.5715 14.9793 59.6795 15.4273 59.8955 15.7073C60.1195 15.9873 60.4395 16.1273 60.8555 16.1273C61.2715 16.1273 61.5875 15.9873 61.8035 15.7073C62.0275 15.4273 62.1395 14.9793 62.1395 14.3633V9.82727H64.9235V14.4473C64.9235 15.7033 64.5635 16.6793 63.8435 17.3753C63.1235 18.0713 62.1195 18.4193 60.8315 18.4193ZM70.5777 11.5433C71.1537 11.5433 71.6817 11.6833 72.1617 11.9633C72.6497 12.2353 73.0337 12.6313 73.3137 13.1513C73.6017 13.6713 73.7457 14.2713 73.7457 14.9513C73.7457 15.6313 73.6017 16.2313 73.3137 16.7513C73.0337 17.2633 72.6497 17.6593 72.1617 17.9393C71.6817 18.2113 71.1537 18.3473 70.5777 18.3473C69.8497 18.3473 69.2937 18.1593 68.9097 17.7833V20.5553H66.1977V11.6633H68.7777V12.2033C69.1697 11.7633 69.7697 11.5433 70.5777 11.5433ZM69.9297 16.2353C70.2417 16.2353 70.4977 16.1233 70.6977 15.8993C70.8977 15.6753 70.9977 15.3593 70.9977 14.9513C70.9977 14.5433 70.8977 14.2273 70.6977 14.0033C70.4977 13.7713 70.2417 13.6553 69.9297 13.6553C69.6177 13.6553 69.3617 13.7713 69.1617 14.0033C68.9617 14.2273 68.8617 14.5433 68.8617 14.9513C68.8617 15.3593 68.9617 15.6753 69.1617 15.8993C69.3617 16.1233 69.6177 16.2353 69.9297 16.2353Z" fill="#FF6D6A"/>
<defs>
<filter id="filter0_i" x="82.3335" y="2.93481" width="9.24444" height="12.5652" filterUnits="userSpaceOnUse" color-interpolation-filters="sRGB">
<feFlood flood-opacity="0" result="BackgroundImageFix"/>
<feBlend mode="normal" in="SourceGraphic" in2="BackgroundImageFix" result="shape"/>
<feColorMatrix in="SourceAlpha" type="matrix" values="0 0 0 0 0 0 0 0 0 0 0 0 0 0 0 0 0 0 127 0" result="hardAlpha"/>
<feOffset dy="2"/>
<feGaussianBlur stdDeviation="2"/>
<feComposite in2="hardAlpha" operator="arithmetic" k2="-1" k3="1"/>
<feColorMatrix type="matrix" values="0 0 0 0 0 0 0 0 0 0 0 0 0 0 0 0 0 0 0.15 0"/>
<feBlend mode="normal" in2="shape" result="effect1_innerShadow"/>
</filter>
<filter id="filter1_i" x="82.3333" y="9.3913" width="11.8444" height="16.6739" filterUnits="userSpaceOnUse" color-interpolation-filters="sRGB">
<feFlood flood-opacity="0" result="BackgroundImageFix"/>
<feBlend mode="normal" in="SourceGraphic" in2="BackgroundImageFix" result="shape"/>
<feColorMatrix in="SourceAlpha" type="matrix" values="0 0 0 0 0 0 0 0 0 0 0 0 0 0 0 0 0 0 127 0" result="hardAlpha"/>
<feOffset dy="2"/>
<feGaussianBlur stdDeviation="2"/>
<feComposite in2="hardAlpha" operator="arithmetic" k2="-1" k3="1"/>
<feColorMatrix type="matrix" values="0 0 0 0 0 0 0 0 0 0 0 0 0 0 0 0 0 0 0.15 0"/>
<feBlend mode="normal" in2="shape" result="effect1_innerShadow"/>
</filter>
</defs>
</svg>
