<svg width="106" height="27" viewBox="0 0 106 27" fill="none" xmlns="http://www.w3.org/2000/svg">
<g filter="url(#filter0_i)">
<path d="M97.6222 0L90.9778 0L102.533 18.7826L106 13.5L97.6222 0Z" fill="#B2B7B5"/>
</g>
<g filter="url(#filter1_i)">
<path d="M90.9779 27L99.3557 13.5L102.533 18.7826L97.6223 27H90.9779Z" fill="#4DBBA1" fill-opacity="0.78"/>
</g>
<path d="M85.9185 0L94.25 13.5L85.9185 27H6C2.68629 27 0 24.3137 0 21V6C0 2.68629 2.68629 0 6 0H85.9185Z" fill="#489F8A"/>
<path d="M16.8712 18.4193C16.1752 18.4193 15.4952 18.3433 14.8312 18.1913C14.1752 18.0313 13.6352 17.8193 13.2112 17.5553L14.1232 15.4913C14.5232 15.7233 14.9712 15.9113 15.4672 16.0553C15.9632 16.1913 16.4392 16.2593 16.8952 16.2593C17.2872 16.2593 17.5672 16.2233 17.7352 16.1513C17.9032 16.0713 17.9872 15.9553 17.9872 15.8033C17.9872 15.6273 17.8752 15.4953 17.6512 15.4073C17.4352 15.3193 17.0752 15.2233 16.5712 15.1193C15.9232 14.9833 15.3832 14.8393 14.9512 14.6873C14.5192 14.5273 14.1432 14.2713 13.8232 13.9193C13.5032 13.5593 13.3432 13.0753 13.3432 12.4673C13.3432 11.9393 13.4912 11.4593 13.7872 11.0273C14.0832 10.5953 14.5232 10.2553 15.1072 10.0073C15.6992 9.75928 16.4152 9.63528 17.2552 9.63528C17.8312 9.63528 18.3952 9.69928 18.9472 9.82728C19.5072 9.94728 19.9992 10.1273 20.4232 10.3673L19.5712 12.4193C18.7472 12.0033 17.9672 11.7953 17.2312 11.7953C16.5032 11.7953 16.1392 11.9713 16.1392 12.3233C16.1392 12.4913 16.2472 12.6193 16.4632 12.7073C16.6792 12.7873 17.0352 12.8753 17.5312 12.9713C18.1712 13.0913 18.7112 13.2313 19.1512 13.3913C19.5912 13.5433 19.9712 13.7953 20.2912 14.1473C20.6192 14.4993 20.7832 14.9793 20.7832 15.5873C20.7832 16.1153 20.6352 16.5953 20.3392 17.0273C20.0432 17.4513 19.5992 17.7913 19.0072 18.0473C18.4232 18.2953 17.7112 18.4193 16.8712 18.4193ZM28.7779 11.6633V18.2273H26.1979V17.6033C25.9579 17.8513 25.6779 18.0393 25.3579 18.1673C25.0379 18.2873 24.6979 18.3473 24.3379 18.3473C23.5059 18.3473 22.8379 18.0953 22.3339 17.5913C21.8299 17.0793 21.5779 16.3113 21.5779 15.2873V11.6633H24.2899V14.8193C24.2899 15.2673 24.3619 15.5873 24.5059 15.7793C24.6499 15.9713 24.8619 16.0673 25.1419 16.0673C25.4059 16.0673 25.6259 15.9633 25.8019 15.7553C25.9779 15.5393 26.0659 15.2033 26.0659 14.7473V11.6633H28.7779ZM34.4208 11.5433C34.9968 11.5433 35.5248 11.6833 36.0048 11.9633C36.4928 12.2353 36.8768 12.6313 37.1568 13.1513C37.4448 13.6633 37.5888 14.2593 37.5888 14.9393C37.5888 15.6193 37.4448 16.2193 37.1568 16.7393C36.8768 17.2593 36.4928 17.6593 36.0048 17.9393C35.5248 18.2113 34.9968 18.3473 34.4208 18.3473C33.6128 18.3473 33.0128 18.1273 32.6208 17.6873V18.2273H30.0408V9.32328H32.7528V12.1073C33.1368 11.7313 33.6928 11.5433 34.4208 11.5433ZM33.7728 16.2353C34.0848 16.2353 34.3408 16.1233 34.5408 15.8993C34.7408 15.6673 34.8408 15.3473 34.8408 14.9393C34.8408 14.5313 34.7408 14.2153 34.5408 13.9913C34.3408 13.7673 34.0848 13.6553 33.7728 13.6553C33.4608 13.6553 33.2048 13.7673 33.0048 13.9913C32.8048 14.2153 32.7048 14.5313 32.7048 14.9393C32.7048 15.3473 32.8048 15.6673 33.0048 15.8993C33.2048 16.1233 33.4608 16.2353 33.7728 16.2353ZM41.0711 18.3473C40.5111 18.3473 39.9591 18.2873 39.4151 18.1673C38.8711 18.0473 38.4311 17.8913 38.0951 17.6993L38.8391 15.9113C39.1431 16.0953 39.5031 16.2393 39.9191 16.3433C40.3351 16.4473 40.7391 16.4993 41.1311 16.4993C41.4431 16.4993 41.6591 16.4753 41.7791 16.4273C41.9071 16.3713 41.9711 16.2913 41.9711 16.1873C41.9711 16.0833 41.8911 16.0113 41.7311 15.9713C41.5791 15.9313 41.3271 15.8913 40.9751 15.8513C40.4391 15.7873 39.9831 15.7073 39.6071 15.6113C39.2311 15.5073 38.8991 15.3113 38.6111 15.0233C38.3311 14.7353 38.1911 14.3233 38.1911 13.7873C38.1911 13.3633 38.3191 12.9833 38.5751 12.6473C38.8311 12.3113 39.2111 12.0433 39.7151 11.8433C40.2271 11.6433 40.8391 11.5433 41.5511 11.5433C42.0471 11.5433 42.5311 11.5913 43.0031 11.6873C43.4831 11.7753 43.8911 11.9073 44.2271 12.0833L43.4831 13.8713C42.9071 13.5513 42.2751 13.3913 41.5871 13.3913C40.9951 13.3913 40.6991 13.4953 40.6991 13.7033C40.6991 13.8073 40.7791 13.8833 40.9391 13.9313C41.0991 13.9713 41.3511 14.0113 41.6951 14.0513C42.2311 14.1153 42.6831 14.1993 43.0511 14.3033C43.4271 14.4073 43.7551 14.6033 44.0351 14.8913C44.3231 15.1793 44.4671 15.5913 44.4671 16.1273C44.4671 16.5353 44.3391 16.9073 44.0831 17.2433C43.8271 17.5793 43.4431 17.8473 42.9311 18.0473C42.4191 18.2473 41.7991 18.3473 41.0711 18.3473ZM48.8763 18.3473C48.1323 18.3473 47.4643 18.2033 46.8723 17.9153C46.2883 17.6273 45.8283 17.2233 45.4923 16.7033C45.1643 16.1833 45.0003 15.5953 45.0003 14.9393C45.0003 14.2833 45.1643 13.6993 45.4923 13.1873C45.8283 12.6673 46.2883 12.2633 46.8723 11.9753C47.4643 11.6873 48.1323 11.5433 48.8763 11.5433C49.6763 11.5433 50.3603 11.7153 50.9283 12.0593C51.4963 12.4033 51.8883 12.8793 52.1043 13.4873L50.0043 14.5193C49.7483 13.9433 49.3683 13.6553 48.8643 13.6553C48.5443 13.6553 48.2763 13.7673 48.0603 13.9913C47.8523 14.2153 47.7483 14.5313 47.7483 14.9393C47.7483 15.3553 47.8523 15.6753 48.0603 15.8993C48.2763 16.1233 48.5443 16.2353 48.8643 16.2353C49.3683 16.2353 49.7483 15.9473 50.0043 15.3713L52.1043 16.4033C51.8883 17.0113 51.4963 17.4873 50.9283 17.8313C50.3603 18.1753 49.6763 18.3473 48.8763 18.3473ZM55.3711 12.3713C55.8511 11.8193 56.5591 11.5433 57.4951 11.5433V13.9433C57.2791 13.9113 57.0791 13.8953 56.8951 13.8953C55.9671 13.8953 55.5031 14.3673 55.5031 15.3113V18.2273H52.7911V11.6633H55.3711V12.3713ZM58.3237 11.6633H61.0357V18.2273H58.3237V11.6633ZM59.6797 11.1353C59.1917 11.1353 58.7957 11.0073 58.4917 10.7513C58.1957 10.4873 58.0477 10.1553 58.0477 9.75528C58.0477 9.35528 58.1957 9.02728 58.4917 8.77128C58.7957 8.50728 59.1917 8.37528 59.6797 8.37528C60.1757 8.37528 60.5717 8.49928 60.8677 8.74728C61.1637 8.99528 61.3117 9.31528 61.3117 9.70728C61.3117 10.1233 61.1637 10.4673 60.8677 10.7393C60.5717 11.0033 60.1757 11.1353 59.6797 11.1353ZM66.6778 11.5433C67.2538 11.5433 67.7818 11.6833 68.2618 11.9633C68.7498 12.2353 69.1338 12.6313 69.4138 13.1513C69.7018 13.6633 69.8458 14.2593 69.8458 14.9393C69.8458 15.6193 69.7018 16.2193 69.4138 16.7393C69.1338 17.2593 68.7498 17.6593 68.2618 17.9393C67.7818 18.2113 67.2538 18.3473 66.6778 18.3473C65.8698 18.3473 65.2698 18.1273 64.8778 17.6873V18.2273H62.2978V9.32328H65.0098V12.1073C65.3938 11.7313 65.9498 11.5433 66.6778 11.5433ZM66.0298 16.2353C66.3418 16.2353 66.5978 16.1233 66.7978 15.8993C66.9978 15.6673 67.0978 15.3473 67.0978 14.9393C67.0978 14.5313 66.9978 14.2153 66.7978 13.9913C66.5978 13.7673 66.3418 13.6553 66.0298 13.6553C65.7178 13.6553 65.4618 13.7673 65.2618 13.9913C65.0618 14.2153 64.9618 14.5313 64.9618 14.9393C64.9618 15.3473 65.0618 15.6673 65.2618 15.8993C65.4618 16.1233 65.7178 16.2353 66.0298 16.2353ZM77.7442 14.9393C77.7442 14.9793 77.7322 15.1913 77.7082 15.5753H73.1482C73.2442 15.8233 73.4042 16.0153 73.6282 16.1513C73.8522 16.2793 74.1322 16.3433 74.4682 16.3433C74.7562 16.3433 74.9962 16.3073 75.1882 16.2353C75.3882 16.1633 75.6042 16.0393 75.8362 15.8633L77.2522 17.2913C76.6122 17.9953 75.6562 18.3473 74.3842 18.3473C73.5922 18.3473 72.8962 18.2033 72.2962 17.9153C71.6962 17.6193 71.2322 17.2113 70.9042 16.6913C70.5762 16.1713 70.4122 15.5873 70.4122 14.9393C70.4122 14.2833 70.5722 13.6993 70.8922 13.1873C71.2202 12.6673 71.6642 12.2633 72.2242 11.9753C72.7922 11.6873 73.4282 11.5433 74.1322 11.5433C74.7962 11.5433 75.4002 11.6753 75.9442 11.9393C76.4962 12.2033 76.9322 12.5913 77.2522 13.1033C77.5802 13.6153 77.7442 14.2273 77.7442 14.9393ZM74.1562 13.3913C73.8762 13.3913 73.6442 13.4673 73.4602 13.6193C73.2762 13.7713 73.1562 13.9873 73.1002 14.2673H75.2122C75.1562 13.9953 75.0362 13.7833 74.8522 13.6313C74.6682 13.4713 74.4362 13.3913 74.1562 13.3913Z" fill="#363A38"/>
<defs>
<filter id="filter0_i" x="90.9778" y="0" width="15.0222" height="20.7826" filterUnits="userSpaceOnUse" color-interpolation-filters="sRGB">
<feFlood flood-opacity="0" result="BackgroundImageFix"/>
<feBlend mode="normal" in="SourceGraphic" in2="BackgroundImageFix" result="shape"/>
<feColorMatrix in="SourceAlpha" type="matrix" values="0 0 0 0 0 0 0 0 0 0 0 0 0 0 0 0 0 0 127 0" result="hardAlpha"/>
<feOffset dy="2"/>
<feGaussianBlur stdDeviation="2"/>
<feComposite in2="hardAlpha" operator="arithmetic" k2="-1" k3="1"/>
<feColorMatrix type="matrix" values="0 0 0 0 0 0 0 0 0 0 0 0 0 0 0 0 0 0 0.15 0"/>
<feBlend mode="normal" in2="shape" result="effect1_innerShadow"/>
</filter>
<filter id="filter1_i" x="90.9778" y="13.5" width="11.5556" height="15.5" filterUnits="userSpaceOnUse" color-interpolation-filters="sRGB">
<feFlood flood-opacity="0" result="BackgroundImageFix"/>
<feBlend mode="normal" in="SourceGraphic" in2="BackgroundImageFix" result="shape"/>
<feColorMatrix in="SourceAlpha" type="matrix" values="0 0 0 0 0 0 0 0 0 0 0 0 0 0 0 0 0 0 127 0" result="hardAlpha"/>
<feOffset dy="2"/>
<feGaussianBlur stdDeviation="2"/>
<feComposite in2="hardAlpha" operator="arithmetic" k2="-1" k3="1"/>
<feColorMatrix type="matrix" values="0 0 0 0 0 0 0 0 0 0 0 0 0 0 0 0 0 0 0.15 0"/>
<feBlend mode="normal" in2="shape" result="effect1_innerShadow"/>
</filter>
</defs>
</svg>
